{
  "accessors": [
    {
      "bufferView": 2,
      "componentType": 5126,
      "count": 37465,
      "max": [
        0.27226999402046204,
        0.11546551436185837,
        0.280131995677948
      ],
      "min": [
        -0.2771059572696686,
        -0.11217176169157028,
        -0.27442288398742676
      ],
      "type": "VEC3"
    },
    {
      "bufferView": 2,
      "byteOffset": 449580,
      "componentType": 5126,
      "count": 37465,
      "max": [
        0.9996336698532104,
        0.9999970197677612,
        1.0
      ],
      "min": [
        -0.9997666478157043,
        -1.0,
        -0.9999963045120239
      ],
      "type": "VEC3"
    },
    {
      "bufferView": 1,
      "componentType": 5126,
      "count": 37465,
      "max": [
        0.9969046115875244,
        0.996997594833374
      ],
      "min": [
        0.003095416584983468,
        0.0034310221672058105
      ],
      "type": "VEC2"
    },
    {
      "bufferView": 1,
      "byteOffset": 299720,
      "componentType": 5126,
      "count": 37465,
      "max": [
        0.9969046115875244,
        0.996997594833374
      ],
      "min": [
        0.003095416584983468,
        0.0034310221672058105
      ],
      "type": "VEC2"
    },
    {
      "bufferView": 1,
      "byteOffset": 599440,
      "componentType": 5126,
      "count": 37465,
      "max": [
        0.9969046115875244,
        0.996997594833374
      ],
      "min": [
        0.003095416584983468,
        0.0034310221672058105
      ],
      "type": "VEC2"
    },
    {
      "bufferView": 0,
      "componentType": 5125,
      "count": 147852,
      "type": "SCALAR"
    }
  ],
  "asset": {
    "extras": {
      "author": "omw100 (https://sketchfab.com/omw100)",
      "license": "SKETCHFAB Standard (https://sketchfab.com/licenses)",
      "source": "https://sketchfab.com/3d-models/food-87a455c74ab3464da4627122c743f63f",
      "title": "Food"
    },
    "generator": "Sketchfab-16.29.0",
    "version": "2.0"
  },
  "bufferViews": [
    {
      "buffer": 0,
      "byteLength": 591408,
      "name": "floatBufferViews",
      "target": 34963
    },
    {
      "buffer": 0,
      "byteLength": 899160,
      "byteOffset": 591408,
      "byteStride": 8,
      "name": "floatBufferViews",
      "target": 34962
    },
    {
      "buffer": 0,
      "byteLength": 899160,
      "byteOffset": 1490568,
      "byteStride": 12,
      "name": "floatBufferViews",
      "target": 34962
    }
  ],
  "buffers": [
    {
      "byteLength": 2389728,
      "uri": "scene.bin"
    }
  ],
  "images": [
    {
      "uri": "textures/Material_0_baseColor.jpeg"
    },
    {
      "uri": "textures/Material_0_metallicRoughness.png"
    }
  ],
  "materials": [
    {
      "doubleSided": true,
      "name": "Material_0",
      "pbrMetallicRoughness": {
        "baseColorTexture": {
          "index": 0
        },
        "metallicRoughnessTexture": {
          "index": 1
        }
      }
    }
  ],
  "meshes": [
    {
      "name": "Object_0",
      "primitives": [
        {
          "attributes": {
            "NORMAL": 1,
            "POSITION": 0,
            "TEXCOORD_0": 2,
            "TEXCOORD_1": 3,
            "TEXCOORD_2": 4
          },
          "indices": 5,
          "material": 0,
          "mode": 4
        }
      ]
    }
  ],
  "nodes": [
    {
      "children": [
        1
      ],
      "matrix": [
        1.0,
        0.0,
        0.0,
        0.0,
        0.0,
        2.220446049250313e-16,
        -1.0,
        0.0,
        0.0,
        1.0,
        2.220446049250313e-16,
        0.0,
        0.0,
        0.0,
        0.0,
        1.0
      ],
      "name": "Sketchfab_model"
    },
    {
      "children": [
        2
      ],
      "name": "root"
    },
    {
      "children": [
        3
      ],
      "matrix": [
        1.0,
        0.0,
        0.0,
        0.0,
        0.0,
        2.220446049250313e-16,
        1.0,
        0.0,
        0.0,
        -1.0,
        2.220446049250313e-16,
        0.0,
        0.0,
        0.0,
        0.0,
        1.0
      ],
      "name": "GLTF_SceneRootNode"
    },
    {
      "children": [
        4
      ],
      "matrix": [
        1.8032480478286743,
        0.0,
        0.0,
        0.0,
        0.0,
        1.8032480478286743,
        0.0,
        0.0,
        0.0,
        0.0,
        1.8032480478286743,
        0.0,
        0.0,
        0.0,
        0.0,
        1.0
      ],
      "name": "high_poly_0"
    },
    {
      "mesh": 0,
      "name": "Object_4"
    }
  ],
  "samplers": [
    {
      "magFilter": 9729,
      "minFilter": 9987,
      "wrapS": 10497,
      "wrapT": 10497
    }
  ],
  "scene": 0,
  "scenes": [
    {
      "name": "Sketchfab_Scene",
      "nodes": [
        0
      ]
    }
  ],
  "textures": [
    {
      "sampler": 0,
      "source": 0
    },
    {
      "sampler": 0,
      "source": 1
    }
  ]
}
